<svg xmlns="http://www.w3.org/2000/svg" xmlns:xlink="http://www.w3.org/1999/xlink" width="500" zoomAndPan="magnify" viewBox="0 0 375 374.999991" height="500" preserveAspectRatio="xMidYMid meet" version="1.0"><defs><g/></defs><rect x="-37.5" width="450" fill="#ffffff" y="-37.499999" height="449.999989" fill-opacity="1"/><rect x="-37.5" width="450" fill="#ffffff" y="-37.499999" height="449.999989" fill-opacity="1"/><g fill="#ecf4bb" fill-opacity="1"><g transform="translate(6.407989, 186.35485)"><g><path d="M 42.480469 -56.445312 C 42.480469 -59.101562 41.414062 -61.472656 39.722656 -63.210938 C 37.984375 -64.902344 35.664062 -65.917969 33.007812 -65.917969 C 26.871094 -65.917969 21.601562 -63.742188 17.734375 -59.875 C 13.871094 -56.011719 11.453125 -50.453125 11.019531 -43.6875 L 10.679688 -43.6875 C 8.3125 -43.6875 6.234375 -42.769531 4.734375 -41.269531 C 3.191406 -39.722656 2.269531 -37.597656 2.269531 -35.230469 C 2.269531 -32.910156 3.191406 -30.832031 4.734375 -29.285156 C 6.234375 -27.738281 8.3125 -26.773438 10.679688 -26.773438 L 10.96875 -26.773438 L 10.96875 -8.503906 C 10.96875 -5.945312 12.035156 -3.574219 13.773438 -1.835938 C 15.464844 -0.0976562 17.785156 0.964844 20.441406 0.964844 C 23.003906 0.964844 25.417969 -0.0976562 27.160156 -1.835938 C 28.851562 -3.574219 29.914062 -5.945312 29.914062 -8.503906 L 29.914062 -26.773438 L 32.8125 -26.773438 C 35.132812 -26.773438 37.257812 -27.738281 38.804688 -29.285156 C 40.304688 -30.832031 41.269531 -32.910156 41.269531 -35.230469 C 41.269531 -37.597656 40.304688 -39.722656 38.804688 -41.269531 C 37.257812 -42.769531 35.132812 -43.6875 32.8125 -43.6875 L 30.058594 -43.6875 C 30.300781 -44.796875 30.6875 -45.570312 31.21875 -46.054688 C 32.332031 -46.972656 33.875 -47.261719 35.519531 -47.503906 C 36.339844 -47.601562 37.113281 -47.890625 37.839844 -48.328125 C 40.691406 -49.921875 42.480469 -52.917969 42.480469 -56.445312 Z M 42.480469 -56.445312 "/></g></g></g><g fill="#ecf4bb" fill-opacity="1"><g transform="translate(50.964904, 186.35485)"><g><path d="M 53.835938 -38.273438 C 53.835938 -40.933594 52.820312 -43.253906 51.128906 -44.992188 C 49.390625 -46.683594 47.070312 -47.699219 44.363281 -47.699219 C 41.707031 -47.699219 39.386719 -46.683594 37.695312 -44.992188 C 36.003906 -43.253906 34.941406 -40.933594 34.941406 -38.273438 L 34.941406 -23.390625 C 34.941406 -21.84375 34.3125 -20.34375 33.296875 -19.28125 C 32.28125 -18.21875 30.832031 -17.492188 29.285156 -17.492188 C 27.738281 -17.492188 26.433594 -18.21875 25.46875 -19.28125 C 24.5 -20.34375 23.96875 -21.84375 23.96875 -23.390625 L 23.96875 -38.371094 C 23.96875 -40.933594 22.859375 -43.253906 21.117188 -44.945312 C 19.378906 -46.636719 16.960938 -47.699219 14.402344 -47.699219 C 11.839844 -47.699219 9.519531 -46.636719 7.828125 -44.945312 C 6.089844 -43.253906 5.027344 -40.933594 5.027344 -38.371094 L 5.027344 -23.390625 C 5.027344 -16.671875 7.007812 -10.582031 10.679688 -6.1875 C 14.351562 -1.738281 19.667969 0.964844 26.386719 0.964844 C 27.789062 0.964844 30.058594 0.964844 32.71875 0.386719 C 35.375 -0.191406 38.515625 -1.351562 41.800781 -3.671875 C 43.398438 -0.578125 45.476562 0.964844 48.617188 0.964844 C 52.144531 0.964844 53.835938 -0.820312 53.835938 -4.253906 Z M 53.835938 -38.273438 "/></g></g></g><g fill="#ecf4bb" fill-opacity="1"><g transform="translate(109.778098, 186.35485)"><g><path d="M 5.027344 -8.503906 C 5.027344 -5.847656 6.039062 -3.480469 7.78125 -1.789062 C 9.472656 -0.046875 11.839844 0.964844 14.496094 0.964844 C 17.058594 0.964844 19.476562 -0.046875 21.214844 -1.789062 C 22.90625 -3.480469 23.96875 -5.847656 23.96875 -8.503906 L 23.96875 -23.390625 C 23.96875 -24.019531 24.019531 -24.644531 24.066406 -25.273438 C 24.164062 -26.433594 24.40625 -27.402344 24.984375 -28.125 C 25.515625 -28.851562 26.675781 -29.238281 28.027344 -29.238281 C 29.335938 -29.238281 30.640625 -29.042969 31.992188 -28.851562 C 32.621094 -28.753906 33.296875 -28.707031 33.925781 -28.707031 C 36.390625 -28.707031 38.5625 -29.625 40.160156 -31.316406 C 41.753906 -32.910156 42.867188 -35.179688 42.867188 -37.644531 C 42.867188 -41.320312 41.027344 -43.878906 38.417969 -45.476562 C 35.808594 -47.019531 32.425781 -47.699219 29.382812 -47.699219 C 24.886719 -47.699219 20.636719 -46.007812 16.960938 -43.105469 C 15.417969 -46.199219 13.433594 -47.699219 10.292969 -47.699219 C 6.765625 -47.699219 5.027344 -45.957031 5.027344 -42.480469 Z M 5.027344 -8.503906 "/></g></g></g><g fill="#ecf4bb" fill-opacity="1"><g transform="translate(154.769939, 186.35485)"><g><path d="M 27.351562 0.964844 C 31.074219 0.964844 35.328125 0.433594 38.660156 -1.0625 C 41.945312 -2.5625 44.316406 -4.929688 44.265625 -8.652344 C 44.21875 -10.921875 43.300781 -12.660156 41.851562 -13.871094 C 40.402344 -15.078125 38.46875 -15.753906 36.535156 -15.996094 C 34.601562 -16.238281 32.667969 -15.949219 31.265625 -15.320312 C 29.960938 -14.738281 28.949219 -14.257812 27.449219 -14.257812 C 26.144531 -14.257812 24.984375 -14.882812 24.066406 -15.753906 C 23.101562 -16.625 22.472656 -17.589844 22.328125 -18.507812 L 43.636719 -18.507812 C 46.007812 -18.507812 48.035156 -18.800781 49.4375 -19.71875 C 50.839844 -20.636719 51.710938 -22.183594 51.710938 -24.695312 C 51.710938 -31.410156 48.953125 -37.164062 44.558594 -41.222656 C 40.109375 -45.28125 34.070312 -47.699219 27.351562 -47.699219 C 20.636719 -47.699219 14.59375 -44.945312 10.195312 -40.546875 C 5.75 -36.148438 2.996094 -30.011719 2.996094 -23.390625 C 2.996094 -16.671875 5.75 -10.582031 10.195312 -6.1875 C 14.59375 -1.738281 20.636719 0.964844 27.351562 0.964844 Z M 27.351562 -32.71875 C 28.320312 -32.71875 29.574219 -32.332031 30.640625 -31.75 C 31.703125 -31.121094 32.523438 -30.203125 32.667969 -29.09375 L 22.035156 -29.09375 C 22.277344 -30.203125 23.050781 -31.121094 24.066406 -31.75 C 25.03125 -32.332031 26.242188 -32.71875 27.351562 -32.71875 Z M 27.351562 -32.71875 "/></g></g></g><g fill="#ecf4bb" fill-opacity="1"><g transform="translate(209.475403, 186.35485)"><g><path d="M 50.355469 -34.3125 C 51.515625 -36.679688 51.613281 -39.289062 50.839844 -41.609375 C 50.019531 -43.878906 48.328125 -45.863281 45.957031 -46.875 C 43.589844 -48.035156 40.882812 -48.179688 38.5625 -47.40625 C 36.195312 -46.636719 34.214844 -44.945312 33.25 -42.574219 L 26.335938 -25.515625 L 19.425781 -42.769531 C 18.21875 -45.136719 16.238281 -46.78125 13.964844 -47.503906 C 11.648438 -48.230469 9.035156 -48.085938 6.667969 -46.875 C 4.347656 -45.714844 2.753906 -43.734375 2.03125 -41.414062 C 1.257812 -39.097656 1.402344 -36.488281 2.609375 -34.117188 L 17.785156 -4.253906 C 19.476562 -1.160156 22.328125 0.773438 25.417969 0.964844 C 29.429688 1.351562 33.199219 -0.484375 35.179688 -4.347656 Z M 50.355469 -34.3125 "/></g></g></g><g fill="#ecf4bb" fill-opacity="1"><g transform="translate(262.247808, 186.35485)"><g><path d="M 27.351562 0.964844 C 31.074219 0.964844 35.328125 0.433594 38.660156 -1.0625 C 41.945312 -2.5625 44.316406 -4.929688 44.265625 -8.652344 C 44.21875 -10.921875 43.300781 -12.660156 41.851562 -13.871094 C 40.402344 -15.078125 38.46875 -15.753906 36.535156 -15.996094 C 34.601562 -16.238281 32.667969 -15.949219 31.265625 -15.320312 C 29.960938 -14.738281 28.949219 -14.257812 27.449219 -14.257812 C 26.144531 -14.257812 24.984375 -14.882812 24.066406 -15.753906 C 23.101562 -16.625 22.472656 -17.589844 22.328125 -18.507812 L 43.636719 -18.507812 C 46.007812 -18.507812 48.035156 -18.800781 49.4375 -19.71875 C 50.839844 -20.636719 51.710938 -22.183594 51.710938 -24.695312 C 51.710938 -31.410156 48.953125 -37.164062 44.558594 -41.222656 C 40.109375 -45.28125 34.070312 -47.699219 27.351562 -47.699219 C 20.636719 -47.699219 14.59375 -44.945312 10.195312 -40.546875 C 5.75 -36.148438 2.996094 -30.011719 2.996094 -23.390625 C 2.996094 -16.671875 5.75 -10.582031 10.195312 -6.1875 C 14.59375 -1.738281 20.636719 0.964844 27.351562 0.964844 Z M 27.351562 -32.71875 C 28.320312 -32.71875 29.574219 -32.332031 30.640625 -31.75 C 31.703125 -31.121094 32.523438 -30.203125 32.667969 -29.09375 L 22.035156 -29.09375 C 22.277344 -30.203125 23.050781 -31.121094 24.066406 -31.75 C 25.03125 -32.332031 26.242188 -32.71875 27.351562 -32.71875 Z M 27.351562 -32.71875 "/></g></g></g><g fill="#ecf4bb" fill-opacity="1"><g transform="translate(316.953254, 186.35485)"><g><path d="M 5.027344 -8.503906 C 5.027344 -5.847656 6.039062 -3.480469 7.78125 -1.789062 C 9.472656 -0.046875 11.839844 0.964844 14.496094 0.964844 C 17.058594 0.964844 19.476562 -0.046875 21.214844 -1.789062 C 22.90625 -3.480469 23.96875 -5.847656 23.96875 -8.503906 L 23.96875 -23.390625 C 23.96875 -24.019531 24.019531 -24.644531 24.066406 -25.273438 C 24.164062 -26.433594 24.40625 -27.402344 24.984375 -28.125 C 25.515625 -28.851562 26.675781 -29.238281 28.027344 -29.238281 C 29.335938 -29.238281 30.640625 -29.042969 31.992188 -28.851562 C 32.621094 -28.753906 33.296875 -28.707031 33.925781 -28.707031 C 36.390625 -28.707031 38.5625 -29.625 40.160156 -31.316406 C 41.753906 -32.910156 42.867188 -35.179688 42.867188 -37.644531 C 42.867188 -41.320312 41.027344 -43.878906 38.417969 -45.476562 C 35.808594 -47.019531 32.425781 -47.699219 29.382812 -47.699219 C 24.886719 -47.699219 20.636719 -46.007812 16.960938 -43.105469 C 15.417969 -46.199219 13.433594 -47.699219 10.292969 -47.699219 C 6.765625 -47.699219 5.027344 -45.957031 5.027344 -42.480469 Z M 5.027344 -8.503906 "/></g></g></g><path stroke-linecap="butt" transform="matrix(0.298274, 0, 0, 0.298274, 9.731307, 117.425325)" fill="none" stroke-linejoin="miter" d="M 142.405279 33.763535 C 142.405279 24.831926 138.843112 16.908725 133.146265 11.054723 C 127.37084 5.449549 119.539312 2.044537 110.673184 2.044537 C 90.112149 2.044537 72.392989 9.326024 59.493231 22.291263 C 46.514896 35.191021 38.369059 53.866204 36.941573 76.56192 L 35.841492 76.56192 C 27.852809 76.56192 20.88563 79.652623 15.895978 84.62918 C 10.68369 89.854564 7.592987 96.978897 7.592987 104.889003 C 7.592987 112.641954 10.68369 119.596036 15.895978 124.82142 C 20.88563 129.968227 27.852809 133.202989 35.841492 133.202989 L 36.784418 133.202989 L 36.784418 194.519402 C 36.784418 203.058125 40.346585 210.981326 46.200587 216.835328 C 51.818857 222.68933 59.650385 226.238401 68.516513 226.238401 C 77.133814 226.238401 85.201073 222.68933 91.055075 216.835328 C 96.751923 210.981326 100.314089 203.058125 100.314089 194.519402 L 100.314089 133.202989 L 110.044566 133.202989 C 117.797517 133.202989 124.921851 129.968227 130.134139 124.82142 C 135.123791 119.596036 138.371649 112.641954 138.371649 104.889003 C 138.371649 96.978897 135.123791 89.854564 130.134139 84.62918 C 124.921851 79.652623 117.797517 76.56192 110.044566 76.56192 L 100.785552 76.56192 C 101.584421 72.842599 102.841656 70.236455 104.662028 68.573237 C 108.381349 65.49563 113.606733 64.539608 119.067849 63.753836 C 121.831147 63.42643 124.437291 62.404927 126.899377 60.977441 C 136.394123 55.594902 142.405279 45.550116 142.405279 33.763535 Z M 329.838107 94.687062 C 329.838107 85.742357 326.433095 77.989406 320.814824 72.135404 C 314.960823 66.517134 307.207872 63.112122 298.106012 63.112122 C 289.174403 63.112122 281.421452 66.517134 275.724605 72.135404 C 270.106334 77.989406 266.544168 85.742357 266.544168 94.687062 L 266.544168 144.596684 C 266.544168 149.743491 264.409487 154.811721 261.004475 158.360791 C 257.612559 161.922958 252.780061 164.385044 247.554676 164.385044 C 242.420966 164.385044 237.981353 161.922958 234.746592 158.360791 C 231.498734 154.811721 229.756939 149.743491 229.756939 144.596684 L 229.756939 94.359657 C 229.756939 85.742357 226.037618 77.989406 220.183616 72.292559 C 214.329615 66.674288 206.262355 63.112122 197.645055 63.112122 C 189.093235 63.112122 181.261707 66.674288 175.643437 72.292559 C 169.789435 77.989406 166.227269 85.742357 166.227269 94.359657 L 166.227269 144.596684 C 166.227269 167.069765 172.880139 187.473646 185.21676 202.272353 C 197.4879 217.149637 215.364214 226.238401 237.824199 226.238401 C 242.57812 226.238401 250.173917 226.238401 259.026948 224.260874 C 267.971654 222.361925 278.487903 218.48545 289.567289 210.653921 C 294.87125 221.026113 301.825333 226.238401 312.354679 226.238401 C 324.219837 226.238401 329.838107 220.227244 329.838107 208.754972 Z M 363.416766 194.519402 C 363.416766 203.38553 366.808682 211.374212 372.662684 216.992483 C 378.280954 222.846485 386.269637 226.238401 395.135765 226.238401 C 403.753065 226.238401 411.833421 222.846485 417.687423 216.992483 C 423.38427 211.374212 426.933341 203.38553 426.933341 194.519402 L 426.933341 144.596684 C 426.933341 142.462003 427.090495 140.4059 427.260746 138.271219 C 427.575054 134.394743 428.360827 131.146886 430.338353 128.697896 C 432.080148 126.248906 435.956623 124.978575 440.540293 124.978575 C 444.901328 124.978575 449.249267 125.620289 453.832937 126.248906 C 455.889041 126.563215 458.193972 126.72037 460.328653 126.72037 C 468.553067 126.72037 475.834555 123.72134 481.203997 118.024492 C 486.507959 112.641954 490.305857 105.046157 490.305857 96.821743 C 490.305857 84.472025 484.137546 75.854725 475.349995 70.550764 C 466.654118 65.32538 455.260423 63.112122 445.058483 63.112122 C 430.024044 63.112122 415.709896 68.730392 403.438756 78.460869 C 398.226468 68.101774 391.573598 63.112122 381.057349 63.112122 C 369.270768 63.112122 363.416766 68.887546 363.416766 80.59555 Z M 589.090501 226.238401 C 601.597373 226.238401 615.832943 224.418029 626.990906 219.441472 C 638.057196 214.373243 645.967301 206.463137 645.810147 193.969361 C 645.652992 186.373565 642.575385 180.519563 637.742887 176.485933 C 632.844908 172.452303 626.349192 170.147372 619.866573 169.3616 C 613.383953 168.575828 606.888238 169.518754 602.22599 171.653435 C 597.878051 173.552384 594.473039 175.215602 589.404809 175.215602 C 585.056871 175.215602 581.180395 173.080921 578.089692 170.147372 C 574.85493 167.226919 572.720249 164.057638 572.23569 160.980031 L 643.675466 160.980031 C 651.664149 160.980031 658.474173 159.945431 663.136421 156.867824 C 667.890342 153.855698 670.732217 148.630314 670.732217 140.170168 C 670.732217 117.697087 661.564877 98.393287 646.76617 84.786334 C 631.888885 71.179381 611.642159 63.112122 589.090501 63.112122 C 566.551939 63.112122 546.292116 72.292559 531.571986 87.091266 C 516.707798 101.798299 507.448784 122.372431 507.448784 144.596684 C 507.448784 167.069765 516.707798 187.473646 531.571986 202.272353 C 546.292116 217.149637 566.551939 226.238401 589.090501 226.238401 Z M 589.090501 113.349148 C 592.338358 113.349148 596.529143 114.61948 600.091309 116.518429 C 603.653476 118.65311 606.416774 121.743813 606.888238 125.450038 L 571.292764 125.450038 C 572.078536 121.743813 574.697776 118.65311 578.089692 116.518429 C 581.33755 114.61948 585.37118 113.349148 589.090501 113.349148 Z M 849.639418 107.96661 C 853.515894 100.056505 853.830203 91.28205 851.28954 83.529099 C 848.526241 75.854725 842.829394 69.201855 834.919288 65.809939 C 826.930606 61.933464 817.907323 61.448904 810.075795 64.068144 C 802.16569 66.674288 795.525916 72.292559 792.278058 80.281241 L 769.097783 137.485447 L 745.917507 79.652623 C 741.883877 71.663941 735.244103 66.202825 727.648307 63.753836 C 719.895356 61.29175 711.107805 61.776309 703.197699 65.809939 C 695.366171 69.764992 690.06221 76.404766 687.61322 84.157717 C 685.007076 91.910668 685.47854 100.698218 689.590747 108.608324 L 740.456391 208.754972 C 746.074661 219.127163 755.647984 225.609783 766.007079 226.238401 C 779.456877 227.508732 792.120904 221.418999 798.760678 208.440663 Z M 949.419373 226.238401 C 961.926245 226.238401 976.161816 224.418029 987.319779 219.441472 C 998.399165 214.373243 1006.30927 206.463137 1006.152116 193.969361 C 1005.994961 186.373565 1002.904258 180.519563 998.084856 176.485933 C 993.173781 172.452303 986.691161 170.147372 980.195445 169.3616 C 973.712826 168.575828 967.230207 169.518754 962.554863 171.653435 C 958.206924 173.552384 954.801912 175.215602 949.746778 175.215602 C 945.385743 175.215602 941.509268 173.080921 938.431661 170.147372 C 935.183803 167.226919 933.049122 164.057638 932.577659 160.980031 L 1004.017435 160.980031 C 1012.006118 160.980031 1018.803046 159.945431 1023.47839 156.867824 C 1028.219214 153.855698 1031.074186 148.630314 1031.074186 140.170168 C 1031.074186 117.697087 1021.893749 98.393287 1007.095042 84.786334 C 992.230854 71.179381 971.971031 63.112122 949.419373 63.112122 C 926.880811 63.112122 906.620989 72.292559 891.913955 87.091266 C 877.036671 101.798299 867.777657 122.372431 867.777657 144.596684 C 867.777657 167.069765 877.036671 187.473646 891.913955 202.272353 C 906.620989 217.149637 926.880811 226.238401 949.419373 226.238401 Z M 949.419373 113.349148 C 952.667231 113.349148 956.858015 114.61948 960.420182 116.518429 C 963.982349 118.65311 966.745647 121.743813 967.230207 125.450038 L 931.621636 125.450038 C 932.420504 121.743813 935.026648 118.65311 938.431661 116.518429 C 941.666422 114.61948 945.713148 113.349148 949.419373 113.349148 Z M 1057.986879 194.519402 C 1057.986879 203.38553 1061.391891 211.374212 1067.245893 216.992483 C 1072.864163 222.846485 1080.852846 226.238401 1089.718974 226.238401 C 1098.336274 226.238401 1106.403534 222.846485 1112.257536 216.992483 C 1117.954383 211.374212 1121.51655 203.38553 1121.51655 194.519402 L 1121.51655 144.596684 C 1121.51655 142.462003 1121.673704 140.4059 1121.830859 138.271219 C 1122.158264 134.394743 1122.944036 131.146886 1124.921562 128.697896 C 1126.663357 126.248906 1130.539832 124.978575 1135.123503 124.978575 C 1139.471441 124.978575 1143.832476 125.620289 1148.416147 126.248906 C 1150.47225 126.563215 1152.764085 126.72037 1154.898766 126.72037 C 1163.136276 126.72037 1170.404668 123.72134 1175.787206 118.024492 C 1181.091168 112.641954 1184.889066 105.046157 1184.889066 96.821743 C 1184.889066 84.472025 1178.720755 75.854725 1169.933205 70.550764 C 1161.237327 65.32538 1149.843632 63.112122 1139.641692 63.112122 C 1124.607253 63.112122 1110.280009 68.730392 1098.021965 78.460869 C 1092.796581 68.101774 1086.156807 63.112122 1075.640558 63.112122 C 1063.853977 63.112122 1057.986879 68.887546 1057.986879 80.59555 Z M 1057.986879 194.519402 " stroke="#d6df9f" stroke-width="8.506287" stroke-opacity="1" stroke-miterlimit="4"/></svg>