<svg xmlns="http://www.w3.org/2000/svg" xmlns:xlink="http://www.w3.org/1999/xlink" width="500" zoomAndPan="magnify" viewBox="0 0 375 149.999998" height="200" preserveAspectRatio="xMidYMid meet" version="1.0"><defs><g/></defs><g fill="#ecf4bb" fill-opacity="1"><g transform="translate(2.82477, 100.078581)"><g><path d="M 43.320312 -57.5625 C 43.320312 -60.273438 42.234375 -62.6875 40.511719 -64.460938 C 38.734375 -66.1875 36.371094 -67.222656 33.660156 -67.222656 C 27.402344 -67.222656 22.027344 -65.003906 18.085938 -61.0625 C 14.144531 -57.117188 11.679688 -51.449219 11.238281 -44.550781 L 10.890625 -44.550781 C 8.476562 -44.550781 6.359375 -43.613281 4.828125 -42.085938 C 3.253906 -40.511719 2.316406 -38.339844 2.316406 -35.925781 C 2.316406 -33.5625 3.253906 -31.441406 4.828125 -29.863281 C 6.359375 -28.289062 8.476562 -27.300781 10.890625 -27.300781 L 11.1875 -27.300781 L 11.1875 -8.671875 C 11.1875 -6.0625 12.269531 -3.648438 14.046875 -1.871094 C 15.769531 -0.0976562 18.136719 0.984375 20.847656 0.984375 C 23.457031 0.984375 25.921875 -0.0976562 27.695312 -1.871094 C 29.421875 -3.648438 30.507812 -6.0625 30.507812 -8.671875 L 30.507812 -27.300781 L 33.460938 -27.300781 C 35.828125 -27.300781 37.996094 -28.289062 39.574219 -29.863281 C 41.101562 -31.441406 42.085938 -33.5625 42.085938 -35.925781 C 42.085938 -38.339844 41.101562 -40.511719 39.574219 -42.085938 C 37.996094 -43.613281 35.828125 -44.550781 33.460938 -44.550781 L 30.652344 -44.550781 C 30.898438 -45.683594 31.292969 -46.472656 31.835938 -46.964844 C 32.96875 -47.902344 34.546875 -48.199219 36.222656 -48.445312 C 37.058594 -48.542969 37.847656 -48.839844 38.589844 -49.28125 C 41.496094 -50.910156 43.320312 -53.964844 43.320312 -57.5625 Z M 43.320312 -57.5625 "/></g></g></g><g fill="#ecf4bb" fill-opacity="1"><g transform="translate(48.263321, 100.078581)"><g><path d="M 54.902344 -39.03125 C 54.902344 -41.742188 53.867188 -44.109375 52.140625 -45.882812 C 50.367188 -47.605469 48 -48.640625 45.242188 -48.640625 C 42.53125 -48.640625 40.164062 -47.605469 38.441406 -45.882812 C 36.714844 -44.109375 35.632812 -41.742188 35.632812 -39.03125 L 35.632812 -23.851562 C 35.632812 -22.277344 34.992188 -20.746094 33.957031 -19.664062 C 32.921875 -18.578125 31.441406 -17.839844 29.863281 -17.839844 C 28.289062 -17.839844 26.957031 -18.578125 25.972656 -19.664062 C 24.984375 -20.746094 24.445312 -22.277344 24.445312 -23.851562 L 24.445312 -39.128906 C 24.445312 -41.742188 23.3125 -44.109375 21.535156 -45.832031 C 19.761719 -47.558594 17.296875 -48.640625 14.6875 -48.640625 C 12.074219 -48.640625 9.707031 -47.558594 7.984375 -45.832031 C 6.210938 -44.109375 5.125 -41.742188 5.125 -39.128906 L 5.125 -23.851562 C 5.125 -17.003906 7.144531 -10.792969 10.890625 -6.308594 C 14.636719 -1.773438 20.058594 0.984375 26.910156 0.984375 C 28.335938 0.984375 30.652344 0.984375 33.363281 0.394531 C 36.074219 -0.195312 39.277344 -1.378906 42.628906 -3.746094 C 44.253906 -0.589844 46.375 0.984375 49.578125 0.984375 C 53.175781 0.984375 54.902344 -0.835938 54.902344 -4.335938 Z M 54.902344 -39.03125 "/></g></g></g><g fill="#ecf4bb" fill-opacity="1"><g transform="translate(108.240238, 100.078581)"><g><path d="M 5.125 -8.671875 C 5.125 -5.964844 6.160156 -3.546875 7.933594 -1.824219 C 9.660156 -0.0507812 12.074219 0.984375 14.785156 0.984375 C 17.398438 0.984375 19.859375 -0.0507812 21.636719 -1.824219 C 23.359375 -3.546875 24.445312 -5.964844 24.445312 -8.671875 L 24.445312 -23.851562 C 24.445312 -24.492188 24.492188 -25.132812 24.542969 -25.773438 C 24.640625 -26.957031 24.886719 -27.941406 25.480469 -28.683594 C 26.019531 -29.421875 27.203125 -29.816406 28.582031 -29.816406 C 29.914062 -29.816406 31.246094 -29.617188 32.625 -29.421875 C 33.265625 -29.324219 33.957031 -29.273438 34.597656 -29.273438 C 37.109375 -29.273438 39.328125 -30.210938 40.953125 -31.933594 C 42.582031 -33.5625 43.714844 -35.878906 43.714844 -38.390625 C 43.714844 -42.136719 41.839844 -44.75 39.179688 -46.375 C 36.519531 -47.953125 33.070312 -48.640625 29.964844 -48.640625 C 25.378906 -48.640625 21.042969 -46.917969 17.296875 -43.960938 C 15.722656 -47.113281 13.699219 -48.640625 10.496094 -48.640625 C 6.898438 -48.640625 5.125 -46.867188 5.125 -43.320312 Z M 5.125 -8.671875 "/></g></g></g><g fill="#ecf4bb" fill-opacity="1"><g transform="translate(154.122321, 100.078581)"><g><path d="M 27.894531 0.984375 C 31.6875 0.984375 36.027344 0.445312 39.425781 -1.085938 C 42.777344 -2.613281 45.191406 -5.027344 45.144531 -8.820312 C 45.09375 -11.136719 44.15625 -12.910156 42.679688 -14.144531 C 41.199219 -15.375 39.230469 -16.066406 37.257812 -16.3125 C 35.285156 -16.558594 33.316406 -16.261719 31.886719 -15.621094 C 30.554688 -15.03125 29.519531 -14.539062 27.992188 -14.539062 C 26.660156 -14.539062 25.480469 -15.179688 24.542969 -16.066406 C 23.558594 -16.953125 22.917969 -17.9375 22.769531 -18.875 L 44.503906 -18.875 C 46.917969 -18.875 48.988281 -19.171875 50.414062 -20.105469 C 51.84375 -21.042969 52.730469 -22.621094 52.730469 -25.183594 C 52.730469 -32.035156 49.921875 -37.898438 45.4375 -42.039062 C 40.90625 -46.175781 34.746094 -48.640625 27.894531 -48.640625 C 21.042969 -48.640625 14.882812 -45.832031 10.398438 -41.347656 C 5.863281 -36.863281 3.054688 -30.605469 3.054688 -23.851562 C 3.054688 -17.003906 5.863281 -10.792969 10.398438 -6.308594 C 14.882812 -1.773438 21.042969 0.984375 27.894531 0.984375 Z M 27.894531 -33.363281 C 28.878906 -33.363281 30.160156 -32.96875 31.246094 -32.378906 C 32.328125 -31.738281 33.167969 -30.800781 33.316406 -29.667969 L 22.472656 -29.667969 C 22.71875 -30.800781 23.507812 -31.738281 24.542969 -32.378906 C 25.527344 -32.96875 26.761719 -33.363281 27.894531 -33.363281 Z M 27.894531 -33.363281 "/></g></g></g><g fill="#ecf4bb" fill-opacity="1"><g transform="translate(209.910228, 100.078581)"><g><path d="M 51.351562 -34.992188 C 52.535156 -37.40625 52.632812 -40.066406 51.84375 -42.433594 C 51.007812 -44.75 49.28125 -46.769531 46.867188 -47.804688 C 44.453125 -48.988281 41.691406 -49.132812 39.328125 -48.347656 C 36.914062 -47.558594 34.890625 -45.832031 33.90625 -43.417969 L 26.859375 -26.019531 L 19.8125 -43.613281 C 18.578125 -46.03125 16.558594 -47.707031 14.242188 -48.445312 C 11.878906 -49.183594 9.214844 -49.035156 6.800781 -47.804688 C 4.433594 -46.621094 2.808594 -44.601562 2.070312 -42.234375 C 1.28125 -39.871094 1.429688 -37.207031 2.660156 -34.792969 L 18.136719 -4.335938 C 19.859375 -1.183594 22.769531 0.789062 25.921875 0.984375 C 30.011719 1.378906 33.855469 -0.492188 35.878906 -4.433594 Z M 51.351562 -34.992188 "/></g></g></g><g fill="#ecf4bb" fill-opacity="1"><g transform="translate(263.726827, 100.078581)"><g><path d="M 27.894531 0.984375 C 31.6875 0.984375 36.027344 0.445312 39.425781 -1.085938 C 42.777344 -2.613281 45.191406 -5.027344 45.144531 -8.820312 C 45.09375 -11.136719 44.15625 -12.910156 42.679688 -14.144531 C 41.199219 -15.375 39.230469 -16.066406 37.257812 -16.3125 C 35.285156 -16.558594 33.316406 -16.261719 31.886719 -15.621094 C 30.554688 -15.03125 29.519531 -14.539062 27.992188 -14.539062 C 26.660156 -14.539062 25.480469 -15.179688 24.542969 -16.066406 C 23.558594 -16.953125 22.917969 -17.9375 22.769531 -18.875 L 44.503906 -18.875 C 46.917969 -18.875 48.988281 -19.171875 50.414062 -20.105469 C 51.84375 -21.042969 52.730469 -22.621094 52.730469 -25.183594 C 52.730469 -32.035156 49.921875 -37.898438 45.4375 -42.039062 C 40.90625 -46.175781 34.746094 -48.640625 27.894531 -48.640625 C 21.042969 -48.640625 14.882812 -45.832031 10.398438 -41.347656 C 5.863281 -36.863281 3.054688 -30.605469 3.054688 -23.851562 C 3.054688 -17.003906 5.863281 -10.792969 10.398438 -6.308594 C 14.882812 -1.773438 21.042969 0.984375 27.894531 0.984375 Z M 27.894531 -33.363281 C 28.878906 -33.363281 30.160156 -32.96875 31.246094 -32.378906 C 32.328125 -31.738281 33.167969 -30.800781 33.316406 -29.667969 L 22.472656 -29.667969 C 22.71875 -30.800781 23.507812 -31.738281 24.542969 -32.378906 C 25.527344 -32.96875 26.761719 -33.363281 27.894531 -33.363281 Z M 27.894531 -33.363281 "/></g></g></g><g fill="#ecf4bb" fill-opacity="1"><g transform="translate(319.514716, 100.078581)"><g><path d="M 5.125 -8.671875 C 5.125 -5.964844 6.160156 -3.546875 7.933594 -1.824219 C 9.660156 -0.0507812 12.074219 0.984375 14.785156 0.984375 C 17.398438 0.984375 19.859375 -0.0507812 21.636719 -1.824219 C 23.359375 -3.546875 24.445312 -5.964844 24.445312 -8.671875 L 24.445312 -23.851562 C 24.445312 -24.492188 24.492188 -25.132812 24.542969 -25.773438 C 24.640625 -26.957031 24.886719 -27.941406 25.480469 -28.683594 C 26.019531 -29.421875 27.203125 -29.816406 28.582031 -29.816406 C 29.914062 -29.816406 31.246094 -29.617188 32.625 -29.421875 C 33.265625 -29.324219 33.957031 -29.273438 34.597656 -29.273438 C 37.109375 -29.273438 39.328125 -30.210938 40.953125 -31.933594 C 42.582031 -33.5625 43.714844 -35.878906 43.714844 -38.390625 C 43.714844 -42.136719 41.839844 -44.75 39.179688 -46.375 C 36.519531 -47.953125 33.070312 -48.640625 29.964844 -48.640625 C 25.378906 -48.640625 21.042969 -46.917969 17.296875 -43.960938 C 15.722656 -47.113281 13.699219 -48.640625 10.496094 -48.640625 C 6.898438 -48.640625 5.125 -46.867188 5.125 -43.320312 Z M 5.125 -8.671875 "/></g></g></g><path stroke-linecap="butt" transform="matrix(0.304175, 0, 0, 0.304175, 6.213846, 29.785161)" fill="none" stroke-linejoin="miter" d="M 142.396459 33.761859 C 142.396459 24.823759 138.839198 16.913027 133.150149 11.057031 C 127.371205 5.445034 119.537526 2.041878 110.676478 2.041878 C 90.103438 2.041878 72.381343 9.323348 59.487877 22.293866 C 46.517359 35.187332 38.362627 53.859742 36.949996 76.56457 L 35.832734 76.56457 C 27.844949 76.56457 20.884532 79.646674 15.901798 84.629408 C 10.675064 89.856141 7.592961 96.970663 7.592961 104.881396 C 7.592961 112.638023 10.675064 119.598439 15.901798 124.825173 C 20.884532 129.962012 27.844949 133.211063 35.832734 133.211063 L 36.783049 133.211063 L 36.783049 194.519237 C 36.783049 203.059232 40.353152 210.969964 46.196306 216.82596 C 51.821145 222.681957 59.654825 226.239218 68.515872 226.239218 C 77.132919 226.239218 85.197757 222.681957 91.053753 216.82596 C 96.755644 210.969964 100.312906 203.059232 100.312906 194.519237 L 100.312906 133.211063 L 110.047215 133.211063 C 117.791 133.211063 124.918364 129.962012 130.132256 124.825173 C 135.127832 119.598439 138.364041 112.638023 138.364041 104.881396 C 138.364041 96.970663 135.127832 89.856141 130.132256 84.629408 C 124.918364 79.646674 117.791 76.56457 110.047215 76.56457 L 100.788063 76.56457 C 101.584273 72.840362 102.842799 70.233416 104.666377 68.576786 C 108.377743 65.494682 113.604476 64.544367 119.062368 63.748157 C 121.836261 63.427105 124.443207 62.399737 126.896047 60.974264 C 136.386358 55.606267 142.396459 45.550905 142.396459 33.761859 Z M 329.839715 94.68477 C 329.839715 85.74667 326.43656 77.990043 320.811721 72.134047 C 314.968566 66.52205 307.21194 63.118894 298.106892 63.118894 C 289.168792 63.118894 281.425008 66.52205 275.723116 72.134047 C 270.11112 77.990043 266.541016 85.74667 266.541016 94.68477 L 266.541016 144.602003 C 266.541016 149.738842 264.409228 154.811471 261.006072 158.368732 C 257.602917 161.925993 252.78713 164.378834 247.560396 164.378834 C 242.423557 164.378834 237.993034 161.925993 234.743983 158.368732 C 231.494932 154.811471 229.761249 149.738842 229.761249 144.602003 L 229.761249 94.363718 C 229.761249 85.74667 226.037041 77.990043 220.181044 72.288152 C 214.33789 66.676155 206.26021 63.118894 197.643163 63.118894 C 189.090326 63.118894 181.269489 66.676155 175.64465 72.288152 C 169.788653 77.990043 166.231392 85.74667 166.231392 94.363718 L 166.231392 144.602003 C 166.231392 167.062832 172.883599 187.481767 185.224855 202.275864 C 197.476216 217.147013 215.365258 226.239218 237.826086 226.239218 C 242.577662 226.239218 250.167342 226.239218 259.028389 224.261535 C 267.966489 222.360904 278.497009 218.495433 289.566897 210.661753 C 294.870684 221.025326 301.831101 226.239218 312.348779 226.239218 C 324.214877 226.239218 329.839715 220.229116 329.839715 208.761123 Z M 363.408958 194.519237 C 363.408958 203.380284 366.812114 211.368069 372.668111 216.992907 C 378.280107 222.836062 386.280734 226.239218 395.141782 226.239218 C 403.758829 226.239218 411.823666 222.836062 417.679663 216.992907 C 423.381554 211.368069 426.938815 203.380284 426.938815 194.519237 L 426.938815 144.602003 C 426.938815 142.470215 427.09292 140.402637 427.259868 138.270849 C 427.568078 134.392536 428.364288 131.156327 430.341971 128.703487 C 432.075654 126.250646 435.953968 124.979278 440.551439 124.979278 C 444.892068 124.979278 449.245539 125.608541 453.830168 126.250646 C 455.897745 126.558856 458.183639 126.725804 460.328269 126.725804 C 468.547211 126.725804 475.828681 123.720753 481.20952 118.018861 C 486.513306 112.638023 490.301725 105.048343 490.301725 96.816558 C 490.301725 84.475303 484.137518 75.858255 475.353523 70.554469 C 466.646581 65.327735 455.25564 63.118894 445.059015 63.118894 C 430.020919 63.118894 415.70198 68.730891 403.437777 78.465201 C 398.223885 68.101628 391.571678 63.118894 381.054001 63.118894 C 369.264955 63.118894 363.408958 68.884996 363.408958 80.596989 Z M 589.095981 226.239218 C 601.591342 226.239218 615.833228 224.428482 626.993011 219.445748 C 638.062899 214.373119 645.973631 206.462387 645.819526 193.967026 C 645.652579 186.377347 642.570476 180.52135 637.741847 176.488932 C 632.836166 172.443671 626.350906 170.157778 619.865647 169.361568 C 613.380388 168.565357 606.895128 169.515673 602.220605 171.660303 C 597.879976 173.560933 594.47682 175.217564 589.404192 175.217564 C 585.063563 175.217564 581.185249 173.085776 578.090304 170.157778 C 574.854095 167.229779 572.722307 164.057781 572.247149 160.975678 L 643.674896 160.975678 C 651.675523 160.975678 658.468992 159.94831 663.143516 156.866207 C 667.88225 153.861156 670.733196 148.634422 670.733196 140.17148 C 670.733196 117.697809 661.563938 98.396136 646.769841 84.796355 C 631.88585 71.183732 611.633862 63.118894 589.095981 63.118894 C 566.545258 63.118894 546.29327 72.288152 531.576226 87.082248 C 516.705077 101.799292 507.445925 122.372332 507.445925 144.602003 C 507.445925 167.062832 516.705077 187.481767 531.576226 202.275864 C 546.29327 217.147013 566.545258 226.239218 589.095981 226.239218 Z M 589.095981 113.35718 C 592.33219 113.35718 596.531556 114.615706 600.088817 116.516336 C 603.646078 118.648124 606.419971 121.74307 606.895128 125.454436 L 571.296834 125.454436 C 572.080202 121.74307 574.69999 118.648124 578.090304 116.516336 C 581.339354 114.615706 585.371773 113.35718 589.095981 113.35718 Z M 849.636457 107.976341 C 853.51477 100.065609 853.822981 91.281614 851.293087 83.524987 C 848.519194 75.858255 842.830145 69.206049 834.919413 65.802893 C 826.931628 61.924579 817.903634 61.449422 810.082796 64.069209 C 802.172064 66.676155 795.519858 72.288152 792.270807 80.288779 L 769.103663 137.474639 L 745.923677 79.646674 C 741.878416 71.658889 735.239052 66.200998 727.649372 63.748157 C 719.892745 61.295316 711.10875 61.770474 703.198018 65.802893 C 695.364339 69.758259 690.060552 76.410465 687.607712 84.15425 C 685.000766 91.910877 685.475924 100.694872 689.585395 108.605604 L 740.452943 208.761123 C 746.077782 219.124696 755.645145 225.609955 766.008717 226.239218 C 779.467236 227.510585 792.116702 221.423431 798.768908 208.44007 Z M 949.419555 226.239218 C 961.927758 226.239218 976.169644 224.428482 987.316585 219.445748 C 998.399315 214.373119 1006.310047 206.462387 1006.1431 193.967026 C 1005.988995 186.377347 1002.906891 180.52135 998.078263 176.488932 C 993.172581 172.443671 986.687322 170.157778 980.202063 169.361568 C 973.716804 168.565357 967.231544 169.515673 962.557021 171.660303 C 958.20355 173.560933 954.800394 175.217564 949.740607 175.217564 C 945.387136 175.217564 941.508823 173.085776 938.426719 170.157778 C 935.190511 167.229779 933.045881 164.057781 932.570723 160.975678 L 1004.011312 160.975678 C 1011.999096 160.975678 1018.805408 159.94831 1023.479932 156.866207 C 1028.218666 153.861156 1031.069611 148.634422 1031.069611 140.17148 C 1031.069611 117.697809 1021.887512 98.396136 1007.093415 84.796355 C 992.222266 71.183732 971.970278 63.118894 949.419555 63.118894 C 926.881674 63.118894 906.629686 72.288152 891.912642 87.082248 C 877.041493 101.799292 867.782341 122.372332 867.782341 144.602003 C 867.782341 167.062832 877.041493 187.481767 891.912642 202.275864 C 906.629686 217.147013 926.881674 226.239218 949.419555 226.239218 Z M 949.419555 113.35718 C 952.668606 113.35718 956.867972 114.615706 960.425233 116.516336 C 963.982494 118.648124 966.756387 121.74307 967.231544 125.454436 L 931.620408 125.454436 C 932.416618 121.74307 935.023564 118.648124 938.426719 116.516336 C 941.67577 114.615706 945.708189 113.35718 949.419555 113.35718 Z M 1057.99949 194.519237 C 1057.99949 203.380284 1061.389804 211.368069 1067.2458 216.992907 C 1072.870639 222.836062 1080.858424 226.239218 1089.719471 226.239218 C 1098.336518 226.239218 1106.414198 222.836062 1112.257352 216.992907 C 1117.959244 211.368069 1121.516505 203.380284 1121.516505 194.519237 L 1121.516505 144.602003 C 1121.516505 142.470215 1121.683452 140.402637 1121.837557 138.270849 C 1122.158609 134.392536 1122.941977 131.156327 1124.91966 128.703487 C 1126.666186 126.250646 1130.544499 124.979278 1135.129128 124.979278 C 1139.482599 124.979278 1143.823228 125.608541 1148.420699 126.250646 C 1150.475435 126.558856 1152.77417 126.725804 1154.905958 126.725804 C 1163.137743 126.725804 1170.40637 123.720753 1175.787209 118.018861 C 1181.090995 112.638023 1184.892256 105.048343 1184.892256 96.816558 C 1184.892256 84.475303 1178.715207 75.858255 1169.931212 70.554469 C 1161.237112 65.327735 1149.846172 63.118894 1139.636704 63.118894 C 1124.598608 63.118894 1110.279669 68.730891 1098.028308 78.465201 C 1092.801574 68.101628 1086.16221 63.118894 1075.63169 63.118894 C 1063.842644 63.118894 1057.99949 68.884996 1057.99949 80.596989 Z M 1057.99949 194.519237 " stroke="#d6df9f" stroke-width="8.506287" stroke-opacity="1" stroke-miterlimit="4"/></svg>