<svg xmlns="http://www.w3.org/2000/svg" xmlns:xlink="http://www.w3.org/1999/xlink" width="500" zoomAndPan="magnify" viewBox="0 0 375 149.999998" height="200" preserveAspectRatio="xMidYMid meet" version="1.0"><defs><g/><clipPath id="ab1abe659d"><path d="M 210.472656 48.488281 L 272.109375 48.488281 L 272.109375 104.523438 L 210.472656 104.523438 Z M 210.472656 48.488281 " clip-rule="nonzero"/></clipPath></defs><g clip-path="url(#ab1abe659d)"><path fill="#fbbdcc" d="M 272.097656 64.8125 C 272.074219 63.765625 271.976562 62.722656 271.773438 61.6875 C 271.375 59.628906 270.605469 57.628906 269.476562 55.832031 C 268.351562 54.039062 266.859375 52.460938 265.105469 51.242188 C 264.226562 50.632812 263.285156 50.121094 262.308594 49.695312 C 261.332031 49.261719 260.320312 48.921875 259.277344 48.730469 C 259.019531 48.671875 258.757812 48.644531 258.492188 48.609375 L 258.292969 48.582031 L 258.09375 48.566406 L 257.703125 48.539062 C 257.4375 48.515625 257.171875 48.523438 256.917969 48.523438 C 256.789062 48.523438 256.652344 48.523438 256.523438 48.53125 L 256.132812 48.550781 L 255.738281 48.574219 C 255.609375 48.582031 255.484375 48.601562 255.355469 48.609375 C 255.097656 48.636719 254.839844 48.660156 254.585938 48.695312 C 254.328125 48.738281 254.070312 48.777344 253.8125 48.828125 L 253.621094 48.863281 L 253.429688 48.90625 L 253.050781 49 C 252.042969 49.253906 251.066406 49.601562 250.152344 50.070312 C 249.242188 50.53125 248.390625 51.085938 247.613281 51.710938 C 246.835938 52.335938 246.132812 53.023438 245.496094 53.753906 C 244.863281 54.484375 244.289062 55.257812 243.769531 56.054688 C 243.632812 56.25 243.511719 56.457031 243.390625 56.65625 C 243.328125 56.753906 243.269531 56.863281 243.207031 56.960938 L 243.027344 57.265625 C 242.800781 57.679688 242.566406 58.089844 242.359375 58.507812 C 242.144531 58.925781 241.945312 59.351562 241.757812 59.777344 L 241.621094 60.105469 L 241.496094 60.433594 C 241.453125 60.539062 241.410156 60.652344 241.367188 60.757812 L 241.289062 60.976562 C 241.214844 60.785156 241.144531 60.589844 241.066406 60.394531 C 240.980469 60.175781 240.886719 59.964844 240.796875 59.75 L 240.652344 59.429688 L 240.503906 59.117188 C 240.453125 59.011719 240.402344 58.90625 240.351562 58.800781 C 240.304688 58.691406 240.246094 58.585938 240.195312 58.488281 C 239.988281 58.070312 239.753906 57.65625 239.527344 57.246094 L 239.347656 56.941406 C 239.289062 56.839844 239.226562 56.734375 239.160156 56.636719 C 239.035156 56.4375 238.914062 56.230469 238.777344 56.039062 C 238.257812 55.246094 237.679688 54.476562 237.042969 53.753906 C 236.410156 53.023438 235.703125 52.339844 234.925781 51.71875 C 234.148438 51.101562 233.296875 50.546875 232.386719 50.085938 C 231.472656 49.625 230.496094 49.277344 229.496094 49.027344 C 228.996094 48.890625 228.484375 48.808594 227.976562 48.722656 C 227.71875 48.6875 227.464844 48.664062 227.207031 48.636719 C 227.078125 48.621094 226.949219 48.609375 226.820312 48.601562 L 226.4375 48.582031 L 226.042969 48.558594 C 225.914062 48.558594 225.78125 48.558594 225.652344 48.550781 C 225.386719 48.550781 225.128906 48.542969 224.867188 48.566406 C 224.339844 48.585938 223.816406 48.652344 223.296875 48.742188 L 222.90625 48.820312 C 222.777344 48.851562 222.648438 48.871094 222.519531 48.90625 C 222.261719 48.976562 222.007812 49.046875 221.757812 49.125 C 221.507812 49.210938 221.25 49.296875 221.007812 49.394531 C 220.757812 49.496094 220.515625 49.59375 220.273438 49.703125 C 220.03125 49.816406 219.789062 49.921875 219.546875 50.042969 C 219.308594 50.164062 219.074219 50.285156 218.839844 50.410156 C 218.609375 50.546875 218.375 50.679688 218.148438 50.816406 C 217.925781 50.964844 217.699219 51.105469 217.476562 51.253906 C 215.699219 52.476562 214.210938 54.058594 213.089844 55.855469 C 211.960938 57.648438 211.191406 59.652344 210.800781 61.710938 C 210.601562 62.738281 210.5 63.789062 210.480469 64.832031 C 210.480469 64.894531 210.472656 64.960938 210.472656 65.03125 L 210.480469 65.238281 L 210.484375 65.65625 C 210.484375 65.796875 210.5 65.933594 210.515625 66.066406 L 210.550781 66.476562 C 210.558594 66.550781 210.566406 66.613281 210.570312 66.683594 L 210.601562 66.882812 L 210.65625 67.28125 C 210.699219 67.542969 210.757812 67.804688 210.808594 68.066406 C 211.027344 69.105469 211.34375 70.089844 211.707031 71.042969 C 212.070312 71.992188 212.484375 72.90625 212.933594 73.796875 C 213.382812 74.683594 213.867188 75.542969 214.375 76.378906 C 214.878906 77.214844 215.414062 78.03125 215.964844 78.835938 C 216.515625 79.636719 217.078125 80.417969 217.664062 81.183594 C 218.238281 81.957031 218.839844 82.707031 219.445312 83.453125 C 220.050781 84.199219 220.671875 84.929688 221.292969 85.652344 C 221.921875 86.378906 222.554688 87.085938 223.199219 87.789062 C 224.488281 89.195312 225.800781 90.570312 227.148438 91.914062 C 228.496094 93.253906 229.859375 94.574219 231.25 95.867188 C 232.640625 97.15625 234.054688 98.429688 235.480469 99.671875 C 236.195312 100.292969 236.914062 100.914062 237.640625 101.523438 C 238.007812 101.828125 238.371094 102.132812 238.742188 102.4375 L 239.296875 102.890625 L 239.867188 103.351562 L 241.289062 104.496094 L 242.707031 103.351562 L 243.277344 102.890625 L 243.835938 102.4375 C 244.207031 102.132812 244.570312 101.828125 244.933594 101.523438 C 245.660156 100.914062 246.378906 100.292969 247.101562 99.671875 C 248.535156 98.429688 249.949219 97.15625 251.332031 95.867188 C 252.722656 94.574219 254.09375 93.253906 255.433594 91.914062 C 256.773438 90.566406 258.09375 89.195312 259.382812 87.78125 C 260.027344 87.082031 260.667969 86.363281 261.289062 85.648438 C 261.910156 84.921875 262.53125 84.191406 263.136719 83.445312 C 263.742188 82.703125 264.34375 81.949219 264.921875 81.175781 C 265.496094 80.410156 266.070312 79.621094 266.617188 78.820312 C 267.167969 78.019531 267.703125 77.203125 268.207031 76.363281 C 268.714844 75.527344 269.199219 74.667969 269.648438 73.78125 C 270.097656 72.894531 270.511719 71.976562 270.875 71.027344 C 271.238281 70.078125 271.554688 69.082031 271.773438 68.046875 L 271.855469 67.65625 L 271.890625 67.457031 C 271.902344 67.394531 271.910156 67.328125 271.925781 67.257812 L 271.980469 66.863281 C 271.996094 66.726562 272.023438 66.597656 272.03125 66.457031 L 272.066406 66.046875 C 272.082031 65.910156 272.089844 65.777344 272.097656 65.632812 L 272.101562 65.214844 L 272.109375 65.007812 Z M 268.109375 65.144531 L 268.09375 65.429688 C 268.09375 65.519531 268.082031 65.621094 268.074219 65.710938 L 268.042969 66.003906 C 268.039062 66.09375 268.015625 66.195312 268 66.292969 L 267.953125 66.585938 C 267.945312 66.632812 267.9375 66.683594 267.921875 66.734375 L 267.894531 66.882812 L 267.832031 67.175781 C 267.644531 67.960938 267.382812 68.757812 267.066406 69.542969 C 266.746094 70.332031 266.375 71.113281 265.96875 71.886719 C 265.5625 72.660156 265.105469 73.417969 264.636719 74.179688 C 264.164062 74.929688 263.65625 75.675781 263.136719 76.40625 C 261.039062 79.335938 258.648438 82.121094 256.140625 84.796875 C 254.882812 86.136719 253.59375 87.449219 252.273438 88.742188 C 250.960938 90.03125 249.613281 91.304688 248.257812 92.550781 C 246.894531 93.800781 245.511719 95.027344 244.113281 96.242188 C 243.414062 96.847656 242.707031 97.449219 242 98.039062 C 241.765625 98.238281 241.53125 98.429688 241.292969 98.621094 C 241.058594 98.429688 240.824219 98.238281 240.59375 98.039062 C 239.890625 97.449219 239.183594 96.847656 238.484375 96.242188 C 237.085938 95.035156 235.710938 93.800781 234.339844 92.550781 C 232.976562 91.304688 231.636719 90.03125 230.324219 88.742188 C 229.003906 87.449219 227.714844 86.136719 226.457031 84.800781 C 223.945312 82.125 221.558594 79.34375 219.460938 76.414062 C 218.9375 75.683594 218.433594 74.9375 217.960938 74.1875 C 217.492188 73.433594 217.035156 72.675781 216.628906 71.902344 C 216.222656 71.125 215.851562 70.347656 215.53125 69.558594 C 215.207031 68.769531 214.945312 67.976562 214.757812 67.1875 C 214.714844 66.988281 214.671875 66.796875 214.636719 66.597656 L 214.585938 66.308594 L 214.566406 66.160156 C 214.558594 66.109375 214.550781 66.058594 214.546875 66.015625 L 214.515625 65.726562 C 214.507812 65.632812 214.496094 65.535156 214.496094 65.441406 L 214.480469 65.160156 L 214.472656 65.015625 C 214.472656 64.96875 214.472656 64.917969 214.472656 64.859375 C 214.472656 64.039062 214.539062 63.214844 214.679688 62.410156 C 214.964844 60.800781 215.53125 59.238281 216.371094 57.855469 C 217.210938 56.472656 218.324219 55.257812 219.636719 54.316406 L 220.136719 53.972656 L 220.660156 53.660156 L 221.191406 53.378906 C 221.378906 53.292969 221.5625 53.207031 221.742188 53.121094 C 221.929688 53.042969 222.121094 52.980469 222.3125 52.902344 C 222.503906 52.839844 222.699219 52.773438 222.890625 52.710938 C 223.082031 52.648438 223.285156 52.597656 223.476562 52.539062 C 223.574219 52.503906 223.675781 52.492188 223.769531 52.460938 L 224.066406 52.382812 C 224.46875 52.285156 224.867188 52.183594 225.273438 52.105469 C 225.472656 52.058594 225.679688 52.023438 225.886719 51.988281 C 225.988281 51.972656 226.09375 51.953125 226.199219 51.929688 L 226.515625 51.894531 L 226.828125 51.859375 C 226.933594 51.84375 227.042969 51.84375 227.140625 51.835938 L 227.777344 51.796875 C 227.992188 51.796875 228.199219 51.796875 228.410156 51.789062 L 228.570312 51.789062 C 228.625 51.789062 228.675781 51.796875 228.726562 51.796875 L 229.046875 51.808594 C 230.746094 51.878906 232.464844 52.269531 234.074219 53.035156 C 234.882812 53.414062 235.660156 53.890625 236.386719 54.441406 C 237.113281 54.996094 237.792969 55.628906 238.40625 56.324219 C 238.710938 56.671875 238.996094 57.03125 239.277344 57.410156 C 239.546875 57.785156 239.804688 58.175781 240.039062 58.574219 C 240.515625 59.375 240.929688 60.210938 241.238281 61.09375 C 241.246094 61.121094 241.28125 61.140625 241.308594 61.128906 C 241.34375 61.113281 241.351562 61.078125 241.351562 61.085938 L 241.367188 61.042969 L 241.394531 60.957031 L 241.457031 60.792969 C 241.5 60.6875 241.542969 60.574219 241.585938 60.46875 C 241.628906 60.359375 241.679688 60.253906 241.722656 60.148438 L 241.867188 59.828125 C 242.066406 59.410156 242.285156 59 242.527344 58.59375 C 242.765625 58.1875 243.027344 57.804688 243.292969 57.429688 C 243.570312 57.054688 243.855469 56.691406 244.164062 56.34375 C 244.777344 55.648438 245.453125 55.015625 246.175781 54.464844 C 246.902344 53.910156 247.679688 53.441406 248.484375 53.058594 C 249.292969 52.675781 250.125 52.382812 250.96875 52.183594 L 251.601562 52.050781 L 252.238281 51.953125 C 252.289062 51.945312 252.34375 51.929688 252.394531 51.921875 L 252.550781 51.910156 L 252.871094 51.878906 C 252.980469 51.875 253.085938 51.859375 253.1875 51.851562 L 253.507812 51.835938 L 253.828125 51.824219 L 253.984375 51.816406 L 254.140625 51.816406 C 254.355469 51.824219 254.570312 51.824219 254.777344 51.824219 C 254.992188 51.832031 255.199219 51.851562 255.410156 51.867188 C 255.519531 51.875 255.625 51.878906 255.726562 51.886719 L 256.351562 51.957031 C 256.460938 51.972656 256.558594 51.992188 256.660156 52.007812 C 256.867188 52.042969 257.074219 52.070312 257.273438 52.121094 C 257.679688 52.199219 258.078125 52.285156 258.480469 52.378906 C 259.269531 52.570312 260.054688 52.789062 260.804688 53.101562 C 261.554688 53.414062 262.257812 53.824219 262.914062 54.292969 C 264.226562 55.230469 265.347656 56.445312 266.191406 57.828125 C 267.039062 59.210938 267.609375 60.765625 267.886719 62.382812 C 268.03125 63.191406 268.09375 64.007812 268.09375 64.839844 L 268.09375 64.996094 Z M 268.109375 65.144531 " fill-opacity="1" fill-rule="nonzero"/></g><path fill="#fbbdcc" d="M 243.199219 72.566406 C 242.585938 72.3125 241.9375 72.183594 241.289062 72.183594 C 240.636719 72.183594 239.988281 72.3125 239.375 72.566406 C 235.679688 74.121094 231.851562 79.246094 231.152344 83.070312 C 230.808594 84.957031 232.042969 86.796875 233.941406 87.144531 C 235.460938 87.421875 237.234375 86.910156 238.570312 85.875 C 238.632812 85.824219 238.707031 85.769531 238.777344 85.726562 C 239.726562 85.085938 240.503906 84.765625 241.289062 84.765625 C 242.066406 84.765625 242.851562 85.085938 243.796875 85.726562 C 243.871094 85.773438 243.933594 85.824219 244.003906 85.875 C 245.339844 86.910156 247.117188 87.421875 248.636719 87.144531 C 250.53125 86.796875 251.765625 84.957031 251.425781 83.070312 C 250.726562 79.246094 246.894531 74.113281 243.199219 72.566406 Z M 243.199219 72.566406 " fill-opacity="1" fill-rule="nonzero"/><path fill="#fbbdcc" d="M 248.605469 63.414062 C 246.601562 59.238281 243 61.695312 242.265625 65.199219 C 241.9375 66.597656 241.980469 68.367188 242.769531 69.617188 C 246.050781 74.710938 250.332031 66.648438 248.605469 63.414062 Z M 248.605469 63.414062 " fill-opacity="1" fill-rule="nonzero"/><path fill="#fbbdcc" d="M 239.796875 69.617188 C 240.589844 68.367188 240.636719 66.597656 240.304688 65.199219 C 239.574219 61.695312 235.964844 59.238281 233.960938 63.414062 C 232.242188 66.648438 236.53125 74.710938 239.796875 69.617188 Z M 239.796875 69.617188 " fill-opacity="1" fill-rule="nonzero"/><path fill="#fbbdcc" d="M 249.140625 71.582031 C 248.742188 72.816406 248.648438 74.417969 249.277344 75.605469 C 251.851562 80.445312 256.308594 73.484375 254.996094 70.429688 C 253.5 66.515625 250.0625 68.464844 249.140625 71.582031 Z M 249.140625 71.582031 " fill-opacity="1" fill-rule="nonzero"/><path fill="#fbbdcc" d="M 233.296875 75.597656 C 233.917969 74.414062 233.832031 72.816406 233.433594 71.574219 C 232.515625 68.464844 229.082031 66.515625 227.585938 70.425781 C 226.265625 73.476562 230.722656 80.4375 233.296875 75.597656 Z M 233.296875 75.597656 " fill-opacity="1" fill-rule="nonzero"/><g fill="#ecf4bb" fill-opacity="1"><g transform="translate(-1.099057, 99.1286)"><g><path d="M 42.835938 -56.917969 C 42.835938 -59.597656 41.761719 -61.988281 40.058594 -63.742188 C 38.304688 -65.449219 35.964844 -66.472656 33.285156 -66.472656 C 27.09375 -66.472656 21.785156 -64.277344 17.882812 -60.378906 C 13.984375 -56.480469 11.550781 -50.875 11.109375 -44.054688 L 10.769531 -44.054688 C 8.382812 -44.054688 6.285156 -43.128906 4.777344 -41.617188 C 3.214844 -40.058594 2.289062 -37.914062 2.289062 -35.527344 C 2.289062 -33.1875 3.214844 -31.089844 4.777344 -29.53125 C 6.285156 -27.972656 8.382812 -26.996094 10.769531 -26.996094 L 11.0625 -26.996094 L 11.0625 -8.578125 C 11.0625 -5.992188 12.132812 -3.605469 13.890625 -1.851562 C 15.59375 -0.0976562 17.933594 0.976562 20.613281 0.976562 C 23.195312 0.976562 25.632812 -0.0976562 27.386719 -1.851562 C 29.09375 -3.605469 30.164062 -5.992188 30.164062 -8.578125 L 30.164062 -26.996094 L 33.089844 -26.996094 C 35.429688 -26.996094 37.574219 -27.972656 39.132812 -29.53125 C 40.644531 -31.089844 41.617188 -33.1875 41.617188 -35.527344 C 41.617188 -37.914062 40.644531 -40.058594 39.132812 -41.617188 C 37.574219 -43.128906 35.429688 -44.054688 33.089844 -44.054688 L 30.3125 -44.054688 C 30.554688 -45.175781 30.945312 -45.953125 31.480469 -46.441406 C 32.601562 -47.367188 34.160156 -47.660156 35.816406 -47.902344 C 36.648438 -48 37.425781 -48.292969 38.15625 -48.730469 C 41.03125 -50.339844 42.835938 -53.363281 42.835938 -56.917969 Z M 42.835938 -56.917969 "/></g></g></g><g fill="#ecf4bb" fill-opacity="1"><g transform="translate(43.83213, 99.1286)"><g><path d="M 54.289062 -38.597656 C 54.289062 -41.277344 53.265625 -43.617188 51.558594 -45.371094 C 49.804688 -47.074219 47.464844 -48.097656 44.734375 -48.097656 C 42.054688 -48.097656 39.714844 -47.074219 38.011719 -45.371094 C 36.304688 -43.617188 35.234375 -41.277344 35.234375 -38.597656 L 35.234375 -23.585938 C 35.234375 -22.027344 34.601562 -20.515625 33.578125 -19.445312 C 32.554688 -18.371094 31.089844 -17.640625 29.53125 -17.640625 C 27.972656 -17.640625 26.65625 -18.371094 25.683594 -19.445312 C 24.707031 -20.515625 24.171875 -22.027344 24.171875 -23.585938 L 24.171875 -38.695312 C 24.171875 -41.277344 23.050781 -43.617188 21.296875 -45.320312 C 19.542969 -47.027344 17.105469 -48.097656 14.523438 -48.097656 C 11.9375 -48.097656 9.601562 -47.027344 7.894531 -45.320312 C 6.140625 -43.617188 5.066406 -41.277344 5.066406 -38.695312 L 5.066406 -23.585938 C 5.066406 -16.8125 7.066406 -10.671875 10.769531 -6.238281 C 14.472656 -1.753906 19.835938 0.976562 26.609375 0.976562 C 28.019531 0.976562 30.3125 0.976562 32.992188 0.390625 C 35.671875 -0.195312 38.839844 -1.363281 42.152344 -3.703125 C 43.761719 -0.585938 45.855469 0.976562 49.023438 0.976562 C 52.582031 0.976562 54.289062 -0.828125 54.289062 -4.289062 Z M 54.289062 -38.597656 "/></g></g></g><g fill="#ecf4bb" fill-opacity="1"><g transform="translate(103.139348, 99.1286)"><g><path d="M 5.066406 -8.578125 C 5.066406 -5.898438 6.089844 -3.507812 7.847656 -1.804688 C 9.550781 -0.046875 11.9375 0.976562 14.621094 0.976562 C 17.203125 0.976562 19.640625 -0.046875 21.394531 -1.804688 C 23.097656 -3.507812 24.171875 -5.898438 24.171875 -8.578125 L 24.171875 -23.585938 C 24.171875 -24.21875 24.21875 -24.851562 24.269531 -25.488281 C 24.367188 -26.65625 24.609375 -27.632812 25.195312 -28.363281 C 25.730469 -29.09375 26.898438 -29.484375 28.265625 -29.484375 C 29.582031 -29.484375 30.894531 -29.289062 32.261719 -29.09375 C 32.894531 -28.996094 33.578125 -28.945312 34.210938 -28.945312 C 36.695312 -28.945312 38.886719 -29.871094 40.496094 -31.578125 C 42.105469 -33.1875 43.226562 -35.476562 43.226562 -37.960938 C 43.226562 -41.667969 41.375 -44.25 38.742188 -45.855469 C 36.109375 -47.417969 32.699219 -48.097656 29.628906 -48.097656 C 25.097656 -48.097656 20.808594 -46.394531 17.105469 -43.46875 C 15.546875 -46.589844 13.546875 -48.097656 10.378906 -48.097656 C 6.824219 -48.097656 5.066406 -46.34375 5.066406 -42.835938 Z M 5.066406 -8.578125 "/></g></g></g><g fill="#ecf4bb" fill-opacity="1"><g transform="translate(148.509115, 99.1286)"><g><path d="M 27.582031 0.976562 C 31.335938 0.976562 35.625 0.4375 38.984375 -1.070312 C 42.300781 -2.582031 44.6875 -4.96875 44.640625 -8.722656 C 44.589844 -11.011719 43.664062 -12.769531 42.203125 -13.984375 C 40.738281 -15.203125 38.789062 -15.886719 36.839844 -16.128906 C 34.890625 -16.375 32.941406 -16.082031 31.53125 -15.449219 C 30.214844 -14.863281 29.191406 -14.375 27.679688 -14.375 C 26.363281 -14.375 25.195312 -15.007812 24.269531 -15.886719 C 23.292969 -16.765625 22.660156 -17.738281 22.515625 -18.664062 L 44.003906 -18.664062 C 46.394531 -18.664062 48.441406 -18.957031 49.851562 -19.882812 C 51.265625 -20.808594 52.144531 -22.367188 52.144531 -24.902344 C 52.144531 -31.675781 49.367188 -37.476562 44.929688 -41.570312 C 40.449219 -45.660156 34.355469 -48.097656 27.582031 -48.097656 C 20.808594 -48.097656 14.71875 -45.320312 10.28125 -40.886719 C 5.800781 -36.453125 3.019531 -30.261719 3.019531 -23.585938 C 3.019531 -16.8125 5.800781 -10.671875 10.28125 -6.238281 C 14.71875 -1.753906 20.808594 0.976562 27.582031 0.976562 Z M 27.582031 -32.992188 C 28.558594 -32.992188 29.824219 -32.601562 30.894531 -32.015625 C 31.96875 -31.382812 32.796875 -30.457031 32.941406 -29.335938 L 22.222656 -29.335938 C 22.464844 -30.457031 23.246094 -31.382812 24.269531 -32.015625 C 25.242188 -32.601562 26.460938 -32.992188 27.582031 -32.992188 Z M 27.582031 -32.992188 "/></g></g></g><path stroke-linecap="butt" transform="matrix(0.300779, 0, 0, 0.300779, 2.252177, 29.620071)" fill="none" stroke-linejoin="miter" d="M 142.396433 33.769888 C 142.396433 24.821769 138.837965 16.912618 133.14961 11.055431 C 127.370346 5.444999 119.539118 2.042376 110.681908 2.042376 C 90.110324 2.042376 72.382918 9.315158 59.486717 22.289282 C 46.512593 35.185483 38.369674 53.860949 36.941092 76.562419 L 35.837188 76.562419 C 27.850115 76.562419 20.889023 79.653351 15.901973 84.640402 C 10.681154 89.86122 7.590222 96.978157 7.590222 104.887308 C 7.590222 112.640613 10.681154 119.601704 15.901973 124.822523 C 20.889023 129.965419 27.850115 133.212197 35.837188 133.212197 L 36.785247 133.212197 L 36.785247 194.524347 C 36.785247 203.069866 40.343715 210.979017 46.200902 216.823217 C 51.824321 222.680404 59.655549 226.238872 68.512759 226.238872 C 77.136201 226.238872 85.201196 222.680404 91.058383 216.823217 C 96.746738 210.979017 100.318194 203.069866 100.318194 194.524347 L 100.318194 133.212197 L 110.04554 133.212197 C 117.798845 133.212197 124.915782 129.965419 130.1366 124.822523 C 135.123651 119.601704 138.370429 112.640613 138.370429 104.887308 C 138.370429 96.978157 135.123651 89.86122 130.1366 84.640402 C 124.915782 79.653351 117.798845 76.562419 110.04554 76.562419 L 100.78573 76.562419 C 101.577943 72.848105 102.85068 70.237696 104.668876 68.575346 C 108.383189 65.484413 113.604008 64.536354 119.058595 63.74414 C 121.837836 63.43245 124.448246 62.406468 126.889823 60.977886 C 136.383401 55.601222 142.396433 45.549198 142.396433 33.769888 Z M 329.839405 94.679439 C 329.839405 85.744306 326.436782 77.991001 320.813363 72.133814 C 314.969163 66.523382 307.215858 63.120759 298.111893 63.120759 C 289.176761 63.120759 281.423455 66.523382 275.722114 72.133814 C 270.111682 77.991001 266.540226 85.744306 266.540226 94.679439 L 266.540226 144.601893 C 266.540226 149.744789 264.41034 154.809762 261.007717 158.368231 C 257.605094 161.926699 252.786876 164.381263 247.566057 164.381263 C 242.423161 164.381263 237.981569 161.926699 234.747779 158.368231 C 231.501001 154.809762 229.760728 149.744789 229.760728 144.601893 L 229.760728 94.367748 C 229.760728 85.744306 226.046414 77.991001 220.189227 72.289659 C 214.33204 66.679227 206.267045 63.120759 197.643603 63.120759 C 189.098084 63.120759 181.266856 66.679227 175.643437 72.289659 C 169.799237 77.991001 166.227782 85.744306 166.227782 94.367748 L 166.227782 144.601893 C 166.227782 167.069595 172.877182 187.485333 185.214938 202.277653 C 197.487758 217.147895 215.358022 226.238872 237.825724 226.238872 C 242.579007 226.238872 250.176467 226.238872 259.033676 224.264831 C 267.968809 222.368713 278.488368 218.485567 289.566374 210.654339 C 294.865115 221.018054 301.826207 226.238872 312.345767 226.238872 C 324.215986 226.238872 329.839405 220.22584 329.839405 208.758221 Z M 363.411087 194.524347 C 363.411087 203.381557 366.81371 211.36863 372.670897 216.992049 C 378.281329 222.836249 386.281389 226.238872 395.138599 226.238872 C 403.76204 226.238872 411.827036 222.836249 417.684223 216.992049 C 423.372578 211.36863 426.944033 203.381557 426.944033 194.524347 L 426.944033 144.601893 C 426.944033 142.45902 427.099879 140.407056 427.255724 138.27717 C 427.567415 134.394024 428.359629 131.147246 430.346656 128.705669 C 432.086929 126.251105 435.957088 124.978368 440.541539 124.978368 C 444.892221 124.978368 449.242903 125.614737 453.84034 126.251105 C 455.892304 126.562796 458.191022 126.718641 460.320909 126.718641 C 468.554737 126.718641 475.827519 123.718619 481.204183 118.017277 C 486.502924 112.640613 490.308148 105.043153 490.308148 96.822312 C 490.308148 84.471569 484.13927 75.848128 475.359983 70.549386 C 466.658619 65.328568 455.255935 63.120759 445.061053 63.120759 C 430.021979 63.120759 415.710182 68.731191 403.437363 78.458537 C 398.216544 68.094822 391.58013 63.120759 381.047583 63.120759 C 369.268274 63.120759 363.411087 68.887036 363.411087 80.60141 Z M 589.088113 226.238872 C 601.594701 226.238872 615.828575 224.420677 626.984503 219.433626 C 638.062509 214.38164 645.971659 206.459502 645.815814 193.965902 C 645.659969 186.368442 642.569036 180.511255 637.750818 176.48525 C 632.84169 172.446259 626.348135 170.14754 619.867566 169.368313 C 613.374011 168.5761 606.893442 169.524159 602.23107 171.654045 C 597.8674 173.550163 594.477764 175.212513 589.412791 175.212513 C 585.062109 175.212513 581.178963 173.082627 578.101018 170.14754 C 574.85424 167.22544 572.711366 164.056585 572.243831 160.97864 L 643.672941 160.97864 C 651.673001 160.97864 658.478247 159.952658 663.14062 156.861726 C 667.880915 153.861703 670.73808 148.640884 670.73808 140.173288 C 670.73808 117.705586 661.556192 98.393752 646.763873 84.796247 C 631.893631 71.185755 611.633738 63.120759 589.088113 63.120759 C 566.542489 63.120759 546.295583 72.289659 531.581186 87.081979 C 516.710944 101.796375 507.451134 122.367959 507.451134 144.601893 C 507.451134 167.069595 516.710944 187.485333 531.581186 202.277653 C 546.295583 217.147895 566.542489 226.238872 589.088113 226.238872 Z M 589.088113 113.354904 C 592.334891 113.354904 596.529728 114.614654 600.088196 116.510772 C 603.646665 118.653645 606.412919 121.731591 606.893442 125.458891 L 571.295771 125.458891 C 572.087985 121.731591 574.698394 118.653645 578.101018 116.510772 C 581.334808 114.614654 585.3738 113.354904 589.088113 113.354904 Z M 589.088113 113.354904 " stroke="#d6df9f" stroke-width="5.265796" stroke-opacity="1" stroke-miterlimit="4"/><g fill="#ecf4bb" fill-opacity="1"><g transform="translate(268.858845, 99.1286)"><g><path d="M 27.582031 0.976562 C 31.335938 0.976562 35.625 0.4375 38.984375 -1.070312 C 42.300781 -2.582031 44.6875 -4.96875 44.640625 -8.722656 C 44.589844 -11.011719 43.664062 -12.769531 42.203125 -13.984375 C 40.738281 -15.203125 38.789062 -15.886719 36.839844 -16.128906 C 34.890625 -16.375 32.941406 -16.082031 31.53125 -15.449219 C 30.214844 -14.863281 29.191406 -14.375 27.679688 -14.375 C 26.363281 -14.375 25.195312 -15.007812 24.269531 -15.886719 C 23.292969 -16.765625 22.660156 -17.738281 22.515625 -18.664062 L 44.003906 -18.664062 C 46.394531 -18.664062 48.441406 -18.957031 49.851562 -19.882812 C 51.265625 -20.808594 52.144531 -22.367188 52.144531 -24.902344 C 52.144531 -31.675781 49.367188 -37.476562 44.929688 -41.570312 C 40.449219 -45.660156 34.355469 -48.097656 27.582031 -48.097656 C 20.808594 -48.097656 14.71875 -45.320312 10.28125 -40.886719 C 5.800781 -36.453125 3.019531 -30.261719 3.019531 -23.585938 C 3.019531 -16.8125 5.800781 -10.671875 10.28125 -6.238281 C 14.71875 -1.753906 20.808594 0.976562 27.582031 0.976562 Z M 27.582031 -32.992188 C 28.558594 -32.992188 29.824219 -32.601562 30.894531 -32.015625 C 31.96875 -31.382812 32.796875 -30.457031 32.941406 -29.335938 L 22.222656 -29.335938 C 22.464844 -30.457031 23.246094 -31.382812 24.269531 -32.015625 C 25.242188 -32.601562 26.460938 -32.992188 27.582031 -32.992188 Z M 27.582031 -32.992188 "/></g></g></g><g fill="#ecf4bb" fill-opacity="1"><g transform="translate(324.023825, 99.1286)"><g><path d="M 5.066406 -8.578125 C 5.066406 -5.898438 6.089844 -3.507812 7.847656 -1.804688 C 9.550781 -0.046875 11.9375 0.976562 14.621094 0.976562 C 17.203125 0.976562 19.640625 -0.046875 21.394531 -1.804688 C 23.097656 -3.507812 24.171875 -5.898438 24.171875 -8.578125 L 24.171875 -23.585938 C 24.171875 -24.21875 24.21875 -24.851562 24.269531 -25.488281 C 24.367188 -26.65625 24.609375 -27.632812 25.195312 -28.363281 C 25.730469 -29.09375 26.898438 -29.484375 28.265625 -29.484375 C 29.582031 -29.484375 30.894531 -29.289062 32.261719 -29.09375 C 32.894531 -28.996094 33.578125 -28.945312 34.210938 -28.945312 C 36.695312 -28.945312 38.886719 -29.871094 40.496094 -31.578125 C 42.105469 -33.1875 43.226562 -35.476562 43.226562 -37.960938 C 43.226562 -41.667969 41.375 -44.25 38.742188 -45.855469 C 36.109375 -47.417969 32.699219 -48.097656 29.628906 -48.097656 C 25.097656 -48.097656 20.808594 -46.394531 17.105469 -43.46875 C 15.546875 -46.589844 13.546875 -48.097656 10.378906 -48.097656 C 6.824219 -48.097656 5.066406 -46.34375 5.066406 -42.835938 Z M 5.066406 -8.578125 "/></g></g></g><path stroke-linecap="butt" transform="matrix(0.300779, 0, 0, 0.300779, 272.210085, 29.620071)" fill="none" stroke-linejoin="miter" d="M 91.691838 226.238872 C 104.185439 226.238872 118.432299 224.420677 129.588228 219.433626 C 140.666233 214.38164 148.575384 206.459502 148.406551 193.965902 C 148.250706 186.368442 145.172761 180.511255 140.341556 176.48525 C 135.432428 172.446259 128.951859 170.14754 122.458304 169.368313 C 115.977735 168.5761 109.48418 169.524159 104.821807 171.654045 C 100.471125 173.550163 97.068502 175.212513 92.003529 175.212513 C 87.652846 175.212513 83.782687 173.082627 80.691755 170.14754 C 77.444977 167.22544 75.315091 164.056585 74.834568 160.97864 L 146.276665 160.97864 C 154.263738 160.97864 161.068985 159.952658 165.744345 156.861726 C 170.48464 153.861703 173.328817 148.640884 173.328817 140.173288 C 173.328817 117.705586 164.159917 98.393752 149.367598 84.796247 C 134.484368 71.185755 114.237463 63.120759 91.691838 63.120759 C 69.146213 63.120759 48.88632 72.289659 34.171924 87.081979 C 19.301682 101.796375 10.041872 122.367959 10.041872 144.601893 C 10.041872 167.069595 19.301682 187.485333 34.171924 202.277653 C 48.88632 217.147895 69.146213 226.238872 91.691838 226.238872 Z M 91.691838 113.354904 C 94.938616 113.354904 99.120465 114.614654 102.691921 116.510772 C 106.250389 118.653645 109.016644 121.731591 109.48418 125.458891 L 73.886509 125.458891 C 74.678723 121.731591 77.289132 118.653645 80.691755 116.510772 C 83.938533 114.614654 87.977524 113.354904 91.691838 113.354904 Z M 200.264085 194.524347 C 200.264085 203.381557 203.653721 211.36863 209.510908 216.992049 C 215.134327 222.836249 223.121401 226.238872 231.97861 226.238872 C 240.602052 226.238872 248.680035 222.836249 254.524235 216.992049 C 260.225577 211.36863 263.784045 203.381557 263.784045 194.524347 L 263.784045 144.601893 C 263.784045 142.45902 263.93989 140.407056 264.095736 138.27717 C 264.420413 134.394024 265.212627 131.147246 267.186668 128.705669 C 268.926941 126.251105 272.7971 124.978368 277.394537 124.978368 C 281.745219 124.978368 286.095901 125.614737 290.680352 126.251105 C 292.745302 126.562796 295.031034 126.718641 297.173907 126.718641 C 305.394748 126.718641 312.680518 123.718619 318.057181 118.017277 C 323.355923 112.640613 327.148159 105.043153 327.148159 96.822312 C 327.148159 84.471569 320.979281 75.848128 312.199994 70.549386 C 303.49863 65.328568 292.108934 63.120759 281.901065 63.120759 C 266.874977 63.120759 252.550194 68.731191 240.290361 78.458537 C 235.069543 68.094822 228.420142 63.120759 217.900582 63.120759 C 206.108285 63.120759 200.264085 68.887036 200.264085 80.60141 Z M 200.264085 194.524347 " stroke="#d6df9f" stroke-width="5.265796" stroke-opacity="1" stroke-miterlimit="4"/><g fill="#ecf4bb" fill-opacity="1"><g transform="translate(237.078402, 83.45467)"><g><path d="M 7.226562 -4.921875 C 7.390625 -5.261719 7.40625 -5.636719 7.292969 -5.96875 C 7.175781 -6.296875 6.933594 -6.578125 6.59375 -6.726562 C 6.253906 -6.890625 5.867188 -6.914062 5.53125 -6.800781 C 5.191406 -6.691406 4.910156 -6.449219 4.769531 -6.109375 L 3.777344 -3.660156 L 2.789062 -6.136719 C 2.613281 -6.476562 2.328125 -6.710938 2.003906 -6.816406 C 1.671875 -6.917969 1.296875 -6.898438 0.957031 -6.726562 C 0.625 -6.558594 0.394531 -6.273438 0.292969 -5.941406 C 0.179688 -5.609375 0.199219 -5.234375 0.375 -4.894531 L 2.550781 -0.609375 C 2.792969 -0.167969 3.203125 0.109375 3.648438 0.136719 C 4.222656 0.195312 4.761719 -0.0703125 5.046875 -0.625 Z M 7.226562 -4.921875 "/></g></g></g><path stroke-linecap="butt" transform="matrix(0.0427944, 0, 0, 0.0427944, 237.55521, 73.565088)" fill="none" stroke-linejoin="miter" d="M 168.854622 108.014296 C 172.688356 100.072991 173.053473 91.310171 170.497651 83.551425 C 167.75927 75.883958 162.00867 69.220564 154.067364 65.843227 C 146.126059 61.918214 137.089402 61.461817 129.239376 64.108919 C 121.38935 66.664741 114.725956 72.324062 111.439899 80.265367 L 88.254939 137.497532 L 65.069979 79.626412 C 61.053687 71.685107 54.390293 66.208345 46.814105 63.743802 C 39.055359 61.279259 30.29254 61.735655 22.351234 65.843227 C 14.592488 69.76824 9.298285 76.431634 6.833742 84.19038 C 4.18664 91.949127 4.643037 100.711946 8.750608 108.561972 L 59.684496 208.78672 C 65.252538 219.101288 74.836872 225.582124 85.24272 226.221079 C 98.660787 227.49899 111.34862 221.383273 117.920734 208.421602 Z M 168.854622 108.014296 " stroke="#d6df9f" stroke-width="5.265796" stroke-opacity="1" stroke-miterlimit="4"/></svg>